PathFileType	4	(X/Y/Z)	T:\Spectrum_Optical_Capture\Spectrum_Demo_10_05_01_TRUECOMBAT\07_Smooth_Trc\TC_Stairs_1.trc
DataRate	CameraRate	NumFrames	NumMarkers	Units	OrigDataRate	OrigDataStartFrame	OrigNumFrames
60.0	60.0	       6	46	mm	60.0	359	       716
Frame#	Time	HeadTop			ForeHead			LFrontHead			RFrontHead			TopSpine			Sternum			Scapula			LFShoulder			LShoulder			LBicep			LOuterElbow			LHand			LWristPinky			LWristThumb			RFShoulder			RShoulder			RBicep			ROuterElbow			RHand			RWristPinky			RWristThumb			MiddleBack			LowerBack			Root			Pelvis			LBackWaist			RBackWaist			LFrontWaist			RFrontWaist			Bellymarker			LThigh			LOuterKnee			LAnkle			LHeel			LOuterMeta			LToe			RThigh			ROuterKnee			RAnkle			RHeel			ROuterMeta			RToe			Floor1			Floor2			Floor3			Floor4			
		X1	Y1	Z1	X2	Y2	Z2	X3	Y3	Z3	X4	Y4	Z4	X5	Y5	Z5	X6	Y6	Z6	X7	Y7	Z7	X8	Y8	Z8	X9	Y9	Z9	X10	Y10	Z10	X11	Y11	Z11	X12	Y12	Z12	X13	Y13	Z13	X14	Y14	Z14	X15	Y15	Z15	X16	Y16	Z16	X17	Y17	Z17	X18	Y18	Z18	X19	Y19	Z19	X20	Y20	Z20	X21	Y21	Z21	X22	Y22	Z22	X23	Y23	Z23	X24	Y24	Z24	X25	Y25	Z25	X26	Y26	Z26	X27	Y27	Z27	X28	Y28	Z28	X29	Y29	Z29	X30	Y30	Z30	X31	Y31	Z31	X32	Y32	Z32	X33	Y33	Z33	X34	Y34	Z34	X35	Y35	Z35	X36	Y36	Z36	X37	Y37	Z37	X38	Y38	Z38	X39	Y39	Z39	X40	Y40	Z40	X41	Y41	Z41	X42	Y42	Z42	X43	Y43	Z43	X44	Y44	Z44	X45	Y45	Z45	X46	Y46	Z46	

359	5.967	565.03296	3480.98975	-370.67862	587.19928	3315.20190	-342.89120	579.45306	3347.58105	-461.14096	491.34491	3357.50366	-298.24380	324.13931	3269.58374	-540.44312	462.18439	2996.32983	-425.55145	186.97208	3148.61963	-495.35971	512.54425	3130.28662	-475.32175	538.39844	3243.00122	-616.33893	582.40002	3051.12598	-719.32471	512.34473	2980.25659	-811.79346	583.32111	2804.35791	-628.99365	574.06281	2732.44409	-573.63000	582.18890	2783.11353	-482.99329	402.36530	3121.24512	-368.26727	271.18945	3226.55786	-326.42279	154.13675	3082.78003	-308.17477	102.32415	2924.47559	-311.44806	348.10294	2878.17896	-268.62283	415.96591	2820.50073	-280.26181	488.19217	2888.04688	-278.37109	290.84784	3190.84448	-578.75079	263.26120	3067.48511	-611.73883	250.44632	2948.55542	-633.14392	381.76169	2975.96802	-709.11517	347.45978	2852.42261	-741.22968	160.89343	2846.72266	-526.75879	469.38913	2834.21704	-661.19031	250.25056	2825.08203	-413.27371	440.13980	2818.66992	-467.01743	466.73935	2579.69531	-715.01935	506.62317	2422.67334	-656.23138	437.18262	2035.67969	-655.09619	335.50345	1969.65686	-631.87134	488.30624	1948.44922	-630.67145	555.78571	1958.36560	-528.13391	238.75356	2573.48120	-404.24078	208.55370	2414.66968	-457.25534	133.61246	2036.61145	-531.05695	113.58381	1955.97327	-639.39294	150.61298	1929.84753	-484.96274	272.41742	1938.85095	-452.78848	4200.66455	32.73236	-4241.24072	-3735.32275	-12.51090	-4194.40283	-3781.56738	-15.15422	4946.48047	4162.51025	21.17522	4908.29834	
360	5.983	570.70490	3478.85303	-377.51831	592.70123	3312.82666	-351.45407	580.57623	3345.75903	-469.54529	499.28738	3355.89087	-302.87723	322.53268	3269.09521	-539.46936	464.15967	2995.36060	-428.95950	187.76901	3147.45923	-489.75366	513.50500	3130.12646	-480.80692	534.46533	3242.73975	-621.70294	574.98260	3051.88477	-727.72571	501.85892	2981.46680	-817.86786	579.77448	2804.47559	-639.09344	573.04688	2732.64893	-583.43451	584.44635	2782.90088	-493.35727	406.19589	3120.78027	-370.35431	277.37640	3227.14771	-323.76248	163.99519	3082.44385	-296.23553	115.64116	2923.01001	-291.46753	365.84805	2887.40942	-270.96738	434.67291	2832.27905	-288.25351	503.44516	2902.87891	-294.57532	288.13544	3190.11353	-577.10175	260.58621	3066.28638	-609.23035	247.05159	2947.66748	-630.61353	376.46887	2974.46436	-709.66589	340.91971	2850.53662	-741.06201	159.87231	2846.49414	-521.79321	465.11484	2833.02588	-663.44940	251.38420	2824.90234	-410.42493	440.68219	2817.55298	-469.41916	459.67694	2577.62378	-717.90906	501.14923	2420.93799	-660.59851	417.48157	2038.31812	-656.54865	314.87027	1975.21582	-622.48883	468.30719	1951.50623	-640.97522	550.36444	1955.15369	-545.87897	239.89055	2573.45996	-400.63187	208.23051	2414.52417	-453.77145	132.36214	2036.93298	-529.95013	112.16059	1956.27930	-639.11658	149.19666	1929.25732	-484.62329	271.08490	1938.67688	-452.28745	4200.73145	32.87446	-4241.25781	-3735.32471	-12.50307	-4194.39990	-3781.51685	-15.09042	4946.44482	4162.58447	21.19487	4908.31982	
361	6.000	576.26270	3476.96558	-384.46295	598.18378	3310.83521	-360.01428	581.95898	3344.26807	-477.78497	506.84152	3354.33105	-307.82730	321.57889	3268.63257	-538.97974	466.43118	2994.81226	-432.41489	189.30829	3146.52197	-484.84198	514.85596	3130.23267	-486.41208	530.93408	3242.43896	-627.12915	567.79211	3052.64404	-735.96631	491.51599	2982.64844	-823.64441	575.86761	2804.52148	-649.00732	571.38831	2732.71704	-593.18237	586.35162	2782.64355	-503.85919	410.46280	3121.01782	-372.46161	283.70480	3228.29175	-321.97546	174.91693	3082.48315	-285.90616	131.29507	2921.84399	-273.53705	383.64554	2898.20386	-274.84729	453.12967	2845.95947	-297.42877	517.19128	2919.74707	-311.44263	286.13116	3189.64185	-575.83600	258.58047	3065.22656	-607.00629	244.30984	2946.89868	-627.92792	371.63699	2973.35571	-710.27173	335.00687	2849.10449	-740.45911	159.72948	2846.31177	-516.53613	461.13757	2831.81567	-665.58868	253.53899	2824.88745	-407.72055	441.88226	2816.79907	-471.39001	451.74994	2575.29102	-720.77045	493.94971	2418.66577	-665.18347	398.42471	2039.88123	-656.83679	296.01077	1979.64648	-614.73730	448.41266	1953.00452	-647.47845	540.37250	1950.98376	-558.43311	241.99146	2573.35767	-396.78967	209.23907	2414.39551	-449.97748	131.63091	2037.61353	-528.72687	111.03684	1956.81921	-638.74298	148.20294	1929.05115	-484.40106	270.13046	1938.54297	-451.79849	4200.80469	33.03316	-4241.28125	-3735.32813	-12.50122	-4194.40723	-3781.49097	-15.06568	4946.41553	4162.66699	21.30097	4908.28955	
362	6.017	581.77606	3475.26074	-391.56827	603.66699	3309.12305	-368.57864	583.52948	3343.00928	-485.82712	514.11957	3352.78052	-313.12918	321.22177	3268.06177	-538.83136	469.07654	2994.74561	-435.95303	191.33417	3145.84204	-480.33481	516.42853	3130.51855	-492.07864	527.59418	3242.09814	-632.70618	560.78528	3053.32690	-743.99634	481.36166	2983.76636	-829.19305	571.66895	2804.43140	-658.73438	569.20386	2732.65649	-602.77301	587.92639	2782.29224	-514.37366	415.17212	3121.81738	-374.57138	290.31888	3229.83350	-320.95068	186.82074	3082.74121	-277.10580	148.92136	2920.85791	-258.04648	401.33612	2910.10571	-280.01190	471.21695	2860.94971	-307.53082	529.50861	2937.86108	-328.44446	284.63974	3189.31250	-574.74286	256.96210	3064.27344	-604.82605	242.12984	2946.18994	-624.91278	367.03445	2972.61255	-710.88544	329.53336	2848.16968	-739.48608	160.59776	2846.11133	-510.79321	457.39621	2830.67480	-667.83752	256.96100	2824.82935	-405.04059	443.85852	2816.40259	-473.09280	443.07507	2572.77026	-723.55859	485.12457	2415.80640	-669.51337	381.27417	2039.72095	-655.93060	279.88049	1981.63916	-608.37006	430.49466	1952.86121	-650.23743	528.30750	1946.74744	-565.53693	245.21129	2572.99927	-392.99142	211.51886	2414.07739	-446.15616	131.38583	2038.44666	-527.51605	110.13716	1957.47986	-638.25702	147.67497	1929.15552	-484.26865	269.50995	1938.40662	-451.42685	4200.85938	33.16096	-4241.30566	-3735.33203	-12.50581	-4194.41895	-3781.48047	-15.08020	4946.38086	4162.73535	21.42359	4908.27197	
363	6.033	587.29431	3473.68140	-398.94971	609.14014	3307.58301	-377.21991	585.19403	3341.85693	-493.72314	521.29010	3351.29883	-318.82632	321.28549	3267.37695	-538.87567	472.11487	2995.18896	-439.67737	193.64879	3145.42383	-475.93921	518.04590	3130.98145	-497.77951	524.24603	3241.75000	-638.52466	553.84210	3053.81934	-751.78552	471.38339	2984.76685	-834.55481	567.22766	2804.19141	-668.29767	566.70026	2732.51758	-612.15576	589.10486	2781.82446	-524.77295	420.33179	3122.96704	-376.76437	297.40448	3231.59741	-320.47592	199.61375	3083.02710	-269.65729	168.06535	2919.91577	-245.18314	418.81555	2922.56812	-286.18091	488.85529	2876.55322	-318.25272	540.60242	2956.39722	-345.01489	283.45163	3188.98438	-573.62134	255.53403	3063.40356	-602.43372	240.44878	2945.46240	-621.54340	362.51379	2972.07446	-711.37897	324.36969	2847.59570	-738.30450	162.50142	2845.86304	-504.55664	453.81128	2829.57837	-670.35529	261.68188	2824.67676	-402.33221	446.53183	2816.26147	-474.84003	434.01852	2570.10205	-726.14966	474.98590	2412.41309	-673.24933	366.98169	2037.53308	-653.98260	267.12933	1980.44836	-602.73853	415.99387	1951.54297	-650.11493	516.86963	1943.31726	-568.33032	249.84227	2572.37891	-389.42242	215.04648	2413.47803	-442.37906	131.56808	2039.35974	-526.35187	109.38519	1958.32324	-637.60022	147.57584	1929.47729	-484.10355	269.16278	1938.23389	-451.22711	4200.88428	33.23098	-4241.31836	-3735.33594	-12.51474	-4194.43115	-3781.47607	-15.13065	4946.33887	4162.77783	21.48072	4908.28467	
364	6.050	592.84076	3472.19458	-406.71515	614.57574	3306.13428	-386.03546	586.88007	3340.70386	-501.58694	528.49304	3349.94995	-324.90674	321.57538	3266.66504	-538.98071	475.50900	2996.09668	-443.72418	196.22243	3145.20605	-471.38446	519.58582	3131.62329	-503.55228	520.74316	3241.43921	-644.63849	546.77350	3054.04834	-759.37744	461.46970	2985.58105	-839.70392	562.56110	2803.89575	-677.65259	564.09967	2732.32666	-621.38165	589.76617	2781.25659	-534.89752	425.95358	3124.25684	-379.21713	305.13663	3233.41455	-320.25677	213.24246	3083.17285	-263.40262	188.24803	2918.90454	-234.96309	435.84393	2934.81641	-293.13458	505.91751	2892.08228	-329.19925	550.73340	2974.53735	-360.68127	282.41766	3188.59473	-572.31604	254.22693	3062.62622	-599.66315	239.18469	2944.71704	-617.92023	357.96948	2971.57910	-711.64966	319.42572	2847.17432	-737.07648	165.26230	2845.58887	-498.02173	450.27408	2828.46606	-673.19281	267.49423	2824.53027	-399.65067	449.64102	2816.23682	-476.95114	425.00406	2567.34351	-728.34589	464.05783	2408.68994	-676.26428	356.11847	2033.57202	-651.38892	258.03647	1976.26001	-597.42181	405.64615	1949.69409	-648.29773	507.96738	1941.07495	-568.44763	256.13144	2571.62231	-386.11734	219.91238	2412.65186	-438.55286	132.18573	2040.45667	-525.14154	108.73975	1959.58252	-636.67041	147.78159	1929.97571	-483.74017	269.04919	1938.01721	-451.18506	4200.88232	33.24080	-4241.31250	-3735.33667	-12.52262	-4194.44141	-3781.47998	-15.21118	4946.30420	4162.78955	21.42950	4908.28467	
